<?xml version="1.0" encoding="iso-8859-1"?>
<!-- Uploaded to: SVG Repo, www.svgrepo.com, Generator: SVG Repo Mixer Tools -->
<svg fill="#000000" height="800px" width="800px" version="1.1" id="Layer_1" xmlns="http://www.w3.org/2000/svg" xmlns:xlink="http://www.w3.org/1999/xlink" 
	 viewBox="0 0 512 512" xml:space="preserve">
<g>
	<g>
		<path d="M507.59,250.103c-13.612-7.879-22.069-22.534-22.069-38.655c0.164-4.431-2.991-8.293-7.362-9.026
			c-21.31-3.569-36.776-21.871-36.776-43.526c0-2.741,0.25-5.466,0.741-8.095c0.535-2.862-0.379-5.802-2.44-7.862
			c-2.06-2.06-4.957-2.94-7.862-2.44c-2.629,0.491-5.354,0.741-8.095,0.741c-24.336,0-44.138-19.802-44.138-44.552
			c0.164-4.431-2.991-8.293-7.362-9.026c-21.31-3.569-36.776-21.871-36.776-43.526c0-6.836,1.517-13.397,4.526-19.483
			c1.129-2.302,1.207-4.983,0.207-7.345c-1-2.362-2.974-4.173-5.414-4.957C309.409,4.155,282.909,0,256.004,0
			c-141.155,0-256,114.845-256,256s114.845,256,256,256c140.19,0,255.026-114.035,255.991-254.198
			C512.013,254.629,510.332,251.69,507.59,250.103z M256.004,494.345C124.582,494.345,17.659,387.422,17.659,256
			S124.582,17.655,256.004,17.655c21.897,0,43.5,2.957,64.362,8.793c-1.707,5.69-2.569,11.612-2.569,17.69
			c0,27.862,18.31,51.776,44.465,59.336c3.198,31.095,29.543,55.422,61.466,55.422c0,27.871,18.319,51.784,44.474,59.336
			c1.854,17.767,11.397,34.009,26.06,44.284C490.789,390.793,384.91,494.345,256.004,494.345z"/>
	</g>
</g>
<g>
	<g>
		<path d="M256.004,185.379c-38.94,0-70.621,31.681-70.621,70.621s31.681,70.621,70.621,70.621S326.625,294.94,326.625,256
			S294.944,185.379,256.004,185.379z M256.004,308.966c-29.207,0-52.965-23.759-52.965-52.966s23.759-52.966,52.965-52.966
			S308.97,226.793,308.97,256S285.211,308.966,256.004,308.966z"/>
	</g>
</g>
</svg>